<svg width="20" height="21" viewBox="0 0 20 21" fill="none" xmlns="http://www.w3.org/2000/svg">
<mask id="mask0_1_105" style="mask-type:alpha" maskUnits="userSpaceOnUse" x="0" y="0" width="20" height="21">
<rect y="0.5" width="20" height="20" fill="#E61053"/>
</mask>
<g mask="url(#mask0_1_105)">
<path d="M10.0001 18.8333C8.95843 18.8333 7.98287 18.6355 7.07343 18.24C6.16342 17.8439 5.37176 17.3089 4.69843 16.635C4.02454 15.9616 3.48954 15.17 3.09342 14.26C2.69787 13.3505 2.50009 12.375 2.50009 11.3333C2.50009 10.2916 2.69787 9.31581 3.09342 8.40581C3.48954 7.49637 4.02454 6.7047 4.69843 6.03081C5.37176 5.35748 6.16342 4.82304 7.07343 4.42748C7.98287 4.03137 8.95843 3.83331 10.0001 3.83331C11.0418 3.83331 12.0176 4.03137 12.9276 4.42748C13.837 4.82304 14.6287 5.35748 15.3026 6.03081C15.9759 6.7047 16.5106 7.49637 16.9068 8.40581C17.3023 9.31581 17.5001 10.2916 17.5001 11.3333C17.5001 12.375 17.3023 13.3505 16.9068 14.26C16.5106 15.17 15.9759 15.9616 15.3026 16.635C14.6287 17.3089 13.837 17.8439 12.9276 18.24C12.0176 18.6355 11.0418 18.8333 10.0001 18.8333ZM12.3334 14.8333L13.5001 13.6666L10.8334 11V7.16665H9.16676V11.6666L12.3334 14.8333ZM4.66676 2.45831L5.83343 3.62498L2.29176 7.16665L1.12509 5.99998L4.66676 2.45831ZM15.3334 2.45831L18.8751 5.99998L17.7084 7.16665L14.1668 3.62498L15.3334 2.45831ZM10.0001 17.1666C11.6251 17.1666 13.0034 16.6005 14.1351 15.4683C15.2673 14.3366 15.8334 12.9583 15.8334 11.3333C15.8334 9.70831 15.2673 8.3297 14.1351 7.19748C13.0034 6.06581 11.6251 5.49998 10.0001 5.49998C8.37509 5.49998 6.99676 6.06581 5.86509 7.19748C4.73287 8.3297 4.16676 9.70831 4.16676 11.3333C4.16676 12.9583 4.73287 14.3366 5.86509 15.4683C6.99676 16.6005 8.37509 17.1666 10.0001 17.1666Z" fill="#676767"/>
</g>
</svg>
