<svg width="20" height="21" viewBox="0 0 20 21" fill="none" xmlns="http://www.w3.org/2000/svg">
<mask id="mask0_1_110" style="mask-type:alpha" maskUnits="userSpaceOnUse" x="0" y="0" width="20" height="21">
<rect y="0.5" width="20" height="20" fill="#D9D9D9"/>
</mask>
<g mask="url(#mask0_1_110)">
<path d="M10 14.2292C11.375 13.1181 12.4133 12.0486 13.115 11.0209C13.8161 9.99308 14.1667 9.0278 14.1667 8.12502C14.1667 7.34724 14.0245 6.68391 13.74 6.13502C13.455 5.58669 13.1042 5.14224 12.6875 4.80169C12.2708 4.46169 11.8195 4.2153 11.3333 4.06252C10.8472 3.90974 10.4028 3.83335 10 3.83335C9.59723 3.83335 9.15278 3.90974 8.66667 4.06252C8.18056 4.2153 7.72917 4.46169 7.31251 4.80169C6.89584 5.14224 6.54528 5.58669 6.26084 6.13502C5.97584 6.68391 5.83334 7.34724 5.83334 8.12502C5.83334 9.0278 6.18389 9.99308 6.88501 11.0209C7.58667 12.0486 8.62501 13.1181 10 14.2292ZM10 16.3334C8.04167 14.8889 6.57973 13.4861 5.61417 12.125C4.64917 10.7639 4.16667 9.43058 4.16667 8.12502C4.16667 7.13891 4.34389 6.27419 4.69834 5.53085C5.05223 4.78808 5.50695 4.16669 6.06251 3.66669C6.61806 3.16669 7.24306 2.79169 7.93751 2.54169C8.63195 2.29169 9.31945 2.16669 10 2.16669C10.6806 2.16669 11.3681 2.29169 12.0625 2.54169C12.757 2.79169 13.382 3.16669 13.9375 3.66669C14.4931 4.16669 14.9481 4.78808 15.3025 5.53085C15.6564 6.27419 15.8333 7.13891 15.8333 8.12502C15.8333 9.43058 15.3506 10.7639 14.385 12.125C13.42 13.4861 11.9583 14.8889 10 16.3334ZM10 9.66669C10.4583 9.66669 10.8508 9.50335 11.1775 9.17669C11.5036 8.85058 11.6667 8.45835 11.6667 8.00002C11.6667 7.54169 11.5036 7.14919 11.1775 6.82252C10.8508 6.49641 10.4583 6.33335 10 6.33335C9.54167 6.33335 9.14945 6.49641 8.82334 6.82252C8.49667 7.14919 8.33334 7.54169 8.33334 8.00002C8.33334 8.45835 8.49667 8.85058 8.82334 9.17669C9.14945 9.50335 9.54167 9.66669 10 9.66669ZM4.16667 18.8334V17.1667H15.8333V18.8334H4.16667Z" fill="#676767"/>
</g>
</svg>
